<svg xmlns="http://www.w3.org/2000/svg" width="2160" height="3840" viewBox="0 0 2160 3840">
  <defs>
    <radialGradient id="bg" cx="50%" cy="31%" r="92%">
      <stop offset="0" stop-color="#244B3B"/>
      <stop offset="0.42" stop-color="#153A2B"/>
      <stop offset="0.75" stop-color="#0E3024"/>
      <stop offset="1" stop-color="#08251C"/>
    </radialGradient>
    <radialGradient id="vignette" cx="50%" cy="42%" r="72%">
      <stop offset="0" stop-color="#000000" stop-opacity="0"/>
      <stop offset="0.7" stop-color="#000000" stop-opacity="0.08"/>
      <stop offset="1" stop-color="#000000" stop-opacity="0.34"/>
    </radialGradient>
    <linearGradient id="gold" x1="0.12" y1="0.04" x2="0.88" y2="0.96">
      <stop offset="0" stop-color="#FCE89A"/>
      <stop offset="0.18" stop-color="#F6CF69"/>
      <stop offset="0.48" stop-color="#E9B64B"/>
      <stop offset="0.74" stop-color="#CA8B2A"/>
      <stop offset="1" stop-color="#F0C45D"/>
    </linearGradient>
    <linearGradient id="goldSheen" x1="0" y1="0" x2="1" y2="1">
      <stop offset="0" stop-color="#FFF5BE" stop-opacity="0.78"/>
      <stop offset="0.32" stop-color="#FFFFFF" stop-opacity="0.08"/>
      <stop offset="0.62" stop-color="#7E4B11" stop-opacity="0.12"/>
      <stop offset="1" stop-color="#5F390E" stop-opacity="0.22"/>
    </linearGradient>
    <filter id="crossShadow" x="-35%" y="-35%" width="185%" height="195%">
      <feDropShadow dx="-18" dy="30" stdDeviation="30" flood-color="#03120D" flood-opacity="0.76"/>
      <feDropShadow dx="0" dy="8" stdDeviation="5" flood-color="#6D4917" flood-opacity="0.24"/>
    </filter>
    <filter id="textShadow" x="-30%" y="-60%" width="160%" height="220%">
      <feDropShadow dx="0" dy="5" stdDeviation="5" flood-color="#03130E" flood-opacity="0.62"/>
    </filter>
    <filter id="paperGrain" x="-10%" y="-10%" width="120%" height="120%">
      <feTurbulence type="fractalNoise" baseFrequency="0.38" numOctaves="4" seed="29" stitchTiles="stitch" result="noise"/>
      <feColorMatrix in="noise" type="saturate" values="0" result="mono"/>
      <feComponentTransfer in="mono" result="softNoise">
        <feFuncA type="table" tableValues="0 0.11"/>
      </feComponentTransfer>
      <feBlend in="SourceGraphic" in2="softNoise" mode="soft-light"/>
    </filter>
  </defs>

  <rect width="2160" height="3840" fill="url(#bg)"/>
  <rect width="2160" height="3840" fill="#FFFFFF" opacity="0.025" filter="url(#paperGrain)"/>
  <rect width="2160" height="3840" fill="url(#vignette)"/>

  <!-- Enlarged, dimensional gold cross to match the approved reference -->
  <g transform="translate(48 530) scale(2.02)" filter="url(#crossShadow)">
    <path fill="url(#gold)" d="M512 118C531 156 552 190 607 232L565 277C545 299 538 326 538 374V423H637C681 423 708 410 744 366L812 451L744 536C708 492 681 479 637 479H538V686C538 731 552 759 596 801L512 904L428 801C472 759 486 731 486 686V479H383C339 479 312 492 276 536L208 451L276 366C312 410 339 423 383 423H486V374C486 326 479 299 459 277L417 232C472 190 493 156 512 118Z"/>
    <path fill="url(#goldSheen)" opacity="0.38" d="M512 118C531 156 552 190 607 232L565 277C545 299 538 326 538 374V423H637C681 423 708 410 744 366L812 451L744 536C708 492 681 479 637 479H538V686C538 731 552 759 596 801L512 904L428 801C472 759 486 731 486 686V479H383C339 479 312 492 276 536L208 451L276 366C312 410 339 423 383 423H486V374C486 326 479 299 459 277L417 232C472 190 493 156 512 118Z"/>
    <path fill="none" stroke="#FFE7A1" stroke-width="4" stroke-linejoin="round" opacity="0.44" d="M512 118C531 156 552 190 607 232L565 277C545 299 538 326 538 374V423H637C681 423 708 410 744 366L812 451L744 536C708 492 681 479 637 479H538V686C538 731 552 759 596 801L512 904L428 801C472 759 486 731 486 686V479H383C339 479 312 492 276 536L208 451L276 366C312 410 339 423 383 423H486V374C486 326 479 299 459 277L417 232C472 190 493 156 512 118Z"/>
  </g>

  <!-- Tighter, slightly higher title block to mirror the reference image -->
  <g text-anchor="middle" fill="url(#gold)" filter="url(#textShadow)">
    <text x="1080" y="2860" font-family="Georgia, 'Times New Roman', serif" font-size="128" font-weight="500" letter-spacing="-1">The Ancient Canon</text>
    <text x="1080" y="3008" font-family="-apple-system, BlinkMacSystemFont, 'Helvetica Neue', Arial, sans-serif" font-size="72" font-weight="500" letter-spacing="17">81 Books</text>
  </g>
</svg>
